<svg width="501" height="91" viewBox="0 0 501 91" fill="none" xmlns="http://www.w3.org/2000/svg">
<path d="M123.453 82.6752C123.824 81.9961 124.016 81.2337 124.01 80.4599C124.021 79.9421 123.927 79.4274 123.734 78.9469C123.541 78.4663 123.253 78.0298 122.886 77.6636C122.52 77.2974 122.084 77.009 121.603 76.8158C121.122 76.6226 120.608 76.5287 120.09 76.5395H113.046V89.6714H120.472C121.016 89.6674 121.554 89.5547 122.054 89.3398C122.554 89.125 123.005 88.8124 123.383 88.4203C123.76 88.0283 124.055 87.5649 124.25 87.0572C124.446 86.5495 124.537 86.0078 124.52 85.4641C124.513 84.436 124.134 83.4453 123.453 82.6752ZM116.201 79.1053H119.899C120.214 79.1406 120.506 79.2909 120.718 79.5276C120.929 79.7643 121.046 80.0707 121.046 80.3882C121.046 80.7058 120.929 81.0122 120.718 81.2489C120.506 81.4856 120.214 81.6359 119.899 81.6711H116.201V79.1053ZM120.345 87.0737H116.201V84.2688H120.345C120.521 84.2729 120.695 84.3122 120.856 84.3845C121.017 84.4568 121.162 84.5607 121.283 84.6899C121.403 84.8191 121.496 84.9711 121.557 85.1369C121.618 85.3027 121.644 85.479 121.636 85.6553C121.644 85.8325 121.618 86.0095 121.557 86.1762C121.497 86.3429 121.404 86.496 121.284 86.6265C121.164 86.757 121.019 86.8622 120.858 86.9363C120.696 87.0103 120.522 87.0517 120.345 87.0578V87.0737Z" fill="#1601C3"/>
<path d="M144.856 76.5237V82.8984C144.889 83.3734 144.823 83.8498 144.663 84.2983C144.504 84.7468 144.254 85.1578 143.929 85.5056C143.604 85.8535 143.211 86.1308 142.774 86.3204C142.337 86.51 141.866 86.6078 141.39 86.6078C140.914 86.6078 140.443 86.51 140.007 86.3204C139.57 86.1308 139.177 85.8535 138.852 85.5056C138.527 85.1578 138.277 84.7468 138.117 84.2983C137.957 83.8498 137.892 83.3734 137.924 82.8984V76.5237H134.737V82.8984C134.673 83.8141 134.799 84.733 135.106 85.598C135.413 86.4631 135.894 87.2558 136.521 87.9269C137.147 88.5979 137.905 89.1329 138.746 89.4988C139.588 89.8646 140.496 90.0534 141.414 90.0534C142.332 90.0534 143.24 89.8646 144.082 89.4988C144.924 89.1329 145.681 88.5979 146.308 87.9269C146.934 87.2558 147.415 86.4631 147.722 85.598C148.029 84.733 148.155 83.8141 148.092 82.8984V76.5237H144.856Z" fill="#1601C3"/>
<path d="M168.459 76.5237L164.905 81.3047L161.335 76.5237H157.415L162.945 84.1096V89.6556H166.866V84.1096L172.38 76.5237H168.459Z" fill="#1601C3"/>
<path d="M209.005 76.5237V84.6993L202.471 76.5237H199.283V89.6556H202.471V81.7988L209.005 89.6556H212.192V76.5237H209.005Z" fill="#1601C3"/>
<path d="M230.839 76.173C229.467 76.1698 228.125 76.5738 226.983 77.3336C225.841 78.0935 224.95 79.175 224.423 80.4415C223.896 81.708 223.756 83.1024 224.022 84.4482C224.288 85.794 224.947 87.0307 225.915 88.0019C226.884 88.973 228.12 89.6348 229.465 89.9036C230.81 90.1724 232.205 90.036 233.472 89.5118C234.74 88.9876 235.824 88.099 236.586 86.9586C237.349 85.8182 237.756 84.4774 237.756 83.1056C237.758 82.1959 237.58 81.2948 237.234 80.4538C236.887 79.6128 236.378 78.8484 235.735 78.2045C235.093 77.5605 234.33 77.0497 233.49 76.7011C232.649 76.3525 231.749 76.173 230.839 76.173ZM230.839 86.9782C230.069 86.9782 229.317 86.7497 228.677 86.3217C228.037 85.8937 227.539 85.2854 227.245 84.574C226.951 83.8625 226.875 83.0798 227.026 82.3251C227.178 81.5703 227.55 80.8775 228.095 80.3343C228.641 79.7911 229.335 79.422 230.09 79.2738C230.846 79.1255 231.628 79.2048 232.338 79.5016C233.048 79.7984 233.655 80.2992 234.08 80.9408C234.505 81.5824 234.731 82.3358 234.728 83.1056C234.723 84.1341 234.312 85.1191 233.583 85.8449C232.854 86.5707 231.868 86.9782 230.839 86.9782Z" fill="#1601C3"/>
<path d="M266.378 76.5237L262.792 84.5717L259.987 76.5237H256.8L254.011 84.5717L250.394 76.5237H246.951L252.577 89.6556H256.051L258.505 82.3565L260.944 89.6556H264.418L270.06 76.5237H266.378Z" fill="#1601C3"/>
<path d="M306.602 81.3844C306.599 80.1236 306.108 78.913 305.231 78.0068C304.355 77.1005 303.161 76.569 301.901 76.5237H295.526V89.6556H298.714V86.8666H301.423C302.726 86.8628 303.981 86.3691 304.937 85.4835C305.894 84.5978 306.482 83.385 306.586 82.0856V81.464L306.602 81.3844ZM301.391 83.6474H298.73V79.727H301.439C301.95 79.7395 302.437 79.9514 302.794 80.3177C303.151 80.684 303.351 81.1755 303.351 81.6872C303.353 81.9452 303.304 82.2011 303.206 82.4399C303.109 82.6786 302.964 82.8955 302.782 83.078C302.599 83.2604 302.382 83.4048 302.144 83.5025C301.905 83.6003 301.649 83.6495 301.391 83.6474Z" fill="#1601C3"/>
<path d="M325.12 89.6556H328.611L322.331 76.5237H319.941L313.423 89.6556H316.977L317.869 87.8547H324.244L325.12 89.6556ZM319.176 85.2889L321.041 81.0656L323.001 85.2889H319.176Z" fill="#1601C3"/>
<path d="M345.664 76.5237L342.11 81.3047L338.524 76.5237H334.604L340.15 84.1096V89.6556H344.07V84.1096L349.584 76.5237H345.664Z" fill="#1601C3"/>
<path d="M380.884 86.5001V76.5237H377.696V89.6556H389.059V86.4682L380.884 86.5001Z" fill="#1601C3"/>
<path d="M409.921 89.6556H413.427L407.148 76.5237H404.726L398.191 89.6556H401.761L402.638 87.8547H409.013L409.921 89.6556ZM403.992 85.2889L405.841 81.0816L407.801 85.3049L403.992 85.2889Z" fill="#1601C3"/>
<path d="M432.407 76.5237H419.275V79.3444H424.264V89.6556H427.451V79.3444H432.439L432.407 76.5237Z" fill="#1601C3"/>
<path d="M452.711 79.3444V76.5237H442.83V89.6556H452.711V86.8347H445.986V84.508H451.292V81.6872H445.986V79.3444H452.711Z" fill="#1601C3"/>
<path d="M475.165 89.6556L472.264 85.6873C472.995 85.3122 473.603 84.7367 474.018 84.0282C474.433 83.3197 474.637 82.5077 474.607 81.6872C474.646 81.031 474.551 80.3738 474.33 79.755C474.108 79.1362 473.764 78.5686 473.317 78.0863C472.871 77.604 472.331 77.217 471.731 76.9485C471.131 76.6799 470.483 76.5354 469.826 76.5237H463.451V89.6556H466.639V86.4682H468.949L471.101 89.6556H475.165ZM466.734 79.7588H469.427C469.681 79.7588 469.931 79.8087 470.165 79.9056C470.399 80.0025 470.612 80.1446 470.791 80.3236C470.97 80.5027 471.112 80.7152 471.209 80.9492C471.306 81.1832 471.356 81.434 471.356 81.6872C471.354 81.9355 471.302 82.181 471.202 82.4083C471.102 82.6355 470.956 82.8398 470.774 83.0086C470.591 83.1774 470.377 83.307 470.142 83.3894C469.908 83.4719 469.659 83.5055 469.412 83.488H466.734V79.7588Z" fill="#1601C3"/>
<path d="M156.334 26.1155H125.512V37.6378H143.696V43.9169C141.663 46.0448 139.133 47.6348 136.334 48.5444C133.535 49.454 130.554 49.6547 127.658 49.1286C124.762 48.6025 122.042 47.3659 119.742 45.5298C117.442 43.6937 115.633 41.3156 114.478 38.6084C113.323 35.9013 112.858 32.9499 113.125 30.0188C113.391 27.0877 114.381 24.2686 116.006 21.8142C117.63 19.3598 119.838 17.3469 122.431 15.9559C125.025 14.5649 127.924 13.8393 130.867 13.8442C133.4 13.7588 135.924 14.1894 138.286 15.11C140.647 16.0305 142.797 17.4217 144.604 19.1989L155.601 12.1868C152.776 8.30154 149.048 5.16253 144.739 3.04113C140.429 0.919726 135.668 -0.120254 130.867 0.0110565C125.475 0.012478 120.172 1.39363 115.465 4.02307C110.757 6.65251 106.8 10.4428 103.971 15.0333C101.142 19.6238 99.5348 24.8619 99.3019 30.2491C99.0691 35.6363 100.219 40.9935 102.641 45.811C105.063 50.6285 108.678 54.746 113.142 57.7718C117.605 60.7976 122.768 62.6311 128.14 63.0977C133.512 63.5644 138.914 62.6487 143.832 60.4379C148.751 58.227 153.021 54.7945 156.238 50.4669L156.334 50.3394V26.1155Z" fill="#1601C3"/>
<path d="M222.01 61.7183L208.814 43.6461C212.154 41.9178 214.934 39.2759 216.83 36.0282C218.726 32.7806 219.66 29.061 219.523 25.3028C219.523 12.2187 210.296 1.70044 198.025 1.70044H168.86V61.6546H183.522V46.7059H194.04L203.921 61.6546L222.01 61.7183ZM183.538 16.5216H195.809C198.157 16.5216 200.408 17.453 202.069 19.1113C203.731 20.7695 204.666 23.0192 204.67 25.3665C204.67 30.3547 200.606 33.59 195.714 33.59H183.538V16.5216Z" fill="#1601C3"/>
<path d="M281.055 61.7183H296.992L268.306 1.76416H257.421L227.619 61.7183H243.859L247.923 53.511H276.975L281.055 61.7183ZM253.963 41.7974L262.457 22.5139L271.397 41.7974H253.963Z" fill="#1601C3"/>
<path d="M347.113 1.76416H287.143V14.673H309.932V61.7183H324.275V14.673H347.065L347.113 1.76416Z" fill="#1601C3"/>
<path d="M370.445 1.76428H356.054V61.7344H370.445V1.76428Z" fill="#1601C3"/>
<path d="M429.219 14.673V1.76416H384.007V61.7183H398.35V41.2396H422.622V28.3309H398.35V14.673H429.219Z" fill="#1601C3"/>
<path d="M482.448 1.76416L466.208 23.5339L449.889 1.76416H431.992L457.316 36.4586V61.7343H475.165V36.4586L500.345 1.76416H482.448Z" fill="#1601C3"/>
<path d="M75.1361 89.6555L75.136 0H73.63H72.124L72.1241 89.6555H75.1361Z" fill="#1601C3"/>
<path fill-rule="evenodd" clip-rule="evenodd" d="M56.0677 19.0954L28.2062 0L0.344727 19.0954V77.1053C0.344727 84.0366 5.96365 89.6555 12.8949 89.6555H43.5175C50.4488 89.6555 56.0677 84.0366 56.0677 77.1053V19.0954ZM28.2062 3.65159L53.0556 20.6827V77.1053C53.0556 82.3731 48.7853 86.6434 43.5175 86.6434H12.8949C7.62716 86.6434 3.35678 82.3731 3.35678 77.1053V20.6827L28.2062 3.65159Z" fill="#1601C3"/>
<path fill-rule="evenodd" clip-rule="evenodd" d="M28.206 34.6263C31.2558 34.6263 33.7281 32.154 33.7281 29.1042C33.7281 26.0544 31.2558 23.5821 28.206 23.5821C25.1563 23.5821 22.6839 26.0544 22.6839 29.1042C22.6839 32.154 25.1563 34.6263 28.206 34.6263ZM28.206 37.6384C32.9193 37.6384 36.7402 33.8175 36.7402 29.1042C36.7402 24.3909 32.9193 20.5701 28.206 20.5701C23.4927 20.5701 19.6719 24.3909 19.6719 29.1042C19.6719 33.8175 23.4927 37.6384 28.206 37.6384Z" fill="#1601C3"/>
</svg>
